<svg width="96" height="96" xmlns="http://www.w3.org/2000/svg" xmlns:xlink="http://www.w3.org/1999/xlink" xml:space="preserve" overflow="hidden"><g transform="translate(-492 -160)"><path d="M570 180 553 180 553 175C553 171.1 549.9 168 546 168L534 168C530.1 168 527 171.1 527 175L527 180 510 180C507.8 180 506 181.8 506 184L506 188 574 188 574 184C574 181.8 572.2 180 570 180ZM533 175C533 174.4 533.4 174 534 174L546 174C546.6 174 547 174.4 547 175L547 180 533 180 533 175Z" fill="#FFFFFF"/><path d="M512 244C512 246.2 513.8 248 516 248L564 248C566.2 248 568 246.2 568 244L568 192 512 192 512 244ZM553 198 559 198 559 242 553 242 553 198ZM537 198 543 198 543 242 537 242 537 198ZM521 198 527 198 527 242 521 242 521 198Z" fill="#FFFFFF"/></g></svg>